<svg viewBox="-42 0 512 512" xmlns="http://www.w3.org/2000/svg"><path fill="#FFF" d="M210 247c34 0 64-13 88-36 24-24 36-54 36-88s-12-63-36-87-54-36-88-36-63 12-87 36-36 53-36 87 12 64 36 88c24 23 53 36 87 36zm0 0M426 394a305 305 0 00-12-65c-3-11-8-21-13-31-6-10-13-19-21-26-7-7-17-14-28-18-12-4-24-7-37-7-6 0-11 2-20 9l-21 13a120 120 0 01-60 18c-11 0-23-2-33-6-12-3-21-7-27-12l-21-13c-10-7-15-9-20-9-14 0-26 3-37 7-12 4-21 11-29 18s-15 16-21 26c-5 10-10 20-13 31a255 255 0 00-12 65l-1 30c0 27 8 48 25 64s39 24 65 24h247c26 0 48-8 65-24s25-37 25-64l-1-30zm0 0"/></svg>