<svg xmlns="http://www.w3.org/2000/svg" viewBox="0 0 427 427"><path d="M365 11c-7-3-16-2-22 3l-27 25-38-34c-8-7-19-7-27 0l-37 34-38-34c-8-7-19-7-27 0l-38 34-27-25a20 20 0 00-33 15v369a20 20 0 0033 15l27-25 38 34c8 7 19 7 27 0l38-34 37 34c8 7 19 7 27 0l38-34 27 25a20 20 0 0034-15V29c0-8-5-15-12-18zm-36 362c-8-7-19-6-27 0l-37 34-38-34c-8-6-19-6-27 0l-38 34-37-34c-8-6-19-7-27 0l-27 25v-54L70 29l28 25c8 7 19 7 27 0l37-34 38 34c8 7 19 7 27 0l38-34 37 34c8 7 19 7 27 0l28-25v369l-28-25z"/><path d="M308 204H119a10 10 0 100 20h189a10 10 0 100-20z"/><path d="M218 144h-99a10 10 0 100 20h99a10 10 0 100-20z"/><path d="M308 264H119a10 10 0 100 20h189a10 10 0 100-20z"/></svg>